<svg width="473" height="473" viewBox="0 0 473 473" fill="none" xmlns="http://www.w3.org/2000/svg">
    <path fill-rule="evenodd" clip-rule="evenodd" d="M472 236.5C472 366.563 366.563 472 236.5 472C106.437 472 1 366.563 1 236.5C1 106.437 106.437 1 236.5 1C366.563 1 472 106.437 472 236.5ZM473 236.5C473 367.115 367.115 473 236.5 473C105.885 473 0 367.115 0 236.5C0 105.885 105.885 0 236.5 0C367.115 0 473 105.885 473 236.5ZM360 236.5C360 304.707 304.707 360 236.5 360C168.293 360 113 304.707 113 236.5C113 168.293 168.293 113 236.5 113C304.707 113 360 168.293 360 236.5ZM361 236.5C361 305.259 305.259 361 236.5 361C167.741 361 112 305.259 112 236.5C112 167.741 167.741 112 236.5 112C305.259 112 361 167.741 361 236.5Z" fill="black"/>
    <circle cx="236.5" cy="236.5" r="236" fill="#8A05BE" />
    <circle cx="236.5" cy="236.5" r="112" fill="#FFFFFF" stroke="black" stroke-width="1" />
</svg>
